<svg xmlns="http://www.w3.org/2000/svg" width="290" height="213.343" id="adobe-creative-cloud"><path fill="#d41818" d="M244.927 168.052a84.136 84.136 0 0 1-31.545 20.023c-3.814 1.271-7.231 2.145-11.124 3.417a79.147 79.147 0 0 1-17.481 2.145h-1.669a85.373 85.373 0 0 1-55.058-19.625c-2.145-1.669-4.291-3.814-6.436-5.562l-4.291-4.291-9.773-9.773-26.857-26.857c-3.814-3.814-3.814-9.773 0-14.064a9.141 9.141 0 0 1 6.833-3.019 8.574 8.574 0 0 1 6.833 3.019l40.523 40.523a84.8 84.8 0 0 0 12.4 9.773 65.1 65.1 0 0 0 34.961 9.773 70.936 70.936 0 0 0 16.607-2.145 67.185 67.185 0 0 0 9.773-3.417 68.676 68.676 0 0 0 21.295-14.541c25.983-25.983 25.983-68.651 0-94.713a66.885 66.885 0 0 0-84.86-8.1 88.243 88.243 0 0 0-18.355-11.124 89.022 89.022 0 0 1 55.847-20.027 87.365 87.365 0 0 1 62.374 148.585ZM90.939 193.638c-19.229 0-36.709-8.1-49.9-21.771-27.731-27.731-27.731-72.545 0-99.8a70.834 70.834 0 0 1 49.9-20.9h.4a69.383 69.383 0 0 1 10.25.874c3.814.874 7.231 1.271 11.124 2.543a71.462 71.462 0 0 1 18.752 9.376c2.543 2.145 5.562 3.814 7.707 6.436l2.145 2.145 5.085 5.085 23.917 23.917c3.814 3.814 3.814 9.773 0 14.064a9.141 9.141 0 0 1-6.833 3.019 8.574 8.574 0 0 1-6.833-3.019L132.736 91.69l-5.085-5.085c-.874-.874-1.669-1.271-2.145-2.145a50.6 50.6 0 0 0-23.917-11.521 34.41 34.41 0 0 0-9.376-.874h-1.271a50.983 50.983 0 0 0 1.669 101.944h8.979l8.5 8.1c4.291 4.291 8.5 8.5 13.667 11.521Zm167.655-162.49a107.041 107.041 0 0 0-150.969 0l-2.145 2.145a85.531 85.531 0 0 0-14.938-1.271 88.88 88.88 0 0 0-63.963 26.857 90.462 90.462 0 0 0 63.963 154.465h94.708a105.725 105.725 0 0 0 73.821-31.144c41.318-41.878 41.318-109.655-.477-151.053Z"></path></svg>